<?xml version="1.0" standalone="no"?>
<!DOCTYPE svg PUBLIC "-//W3C//DTD SVG 20010904//EN"
 "http://www.w3.org/TR/2001/REC-SVG-20010904/DTD/svg10.dtd">
<svg version="1.0" xmlns="http://www.w3.org/2000/svg"
 width="3840.000000pt" height="2160.000000pt" viewBox="0 0 3840.000000 2160.000000"
 preserveAspectRatio="xMidYMid meet">

<g transform="translate(0.000000,2160.000000) scale(0.100000,-0.100000)"
fill="#000000" stroke="none">
<path d="M35995 19660 c-113 -16 -448 -106 -628 -170 -101 -36 -313 -134 -395
-184 -31 -18 -93 -48 -137 -66 -75 -29 -126 -45 -345 -104 -47 -12 -110 -32
-140 -43 -31 -12 -78 -24 -105 -28 -28 -3 -95 -15 -150 -26 -99 -19 -662 -102
-805 -119 -229 -27 -486 -31 -1250 -19 -959 14 -1166 21 -1205 37 -47 21 -199
40 -371 47 -88 4 -199 16 -249 26 -134 28 -600 52 -870 46 -308 -8 -598 -38
-792 -82 -60 -13 -142 -31 -183 -39 -41 -9 -111 -25 -155 -36 -201 -52 -322
-82 -470 -115 -88 -19 -180 -42 -205 -49 -58 -18 -480 -134 -679 -186 -161
-42 -259 -81 -521 -207 -234 -112 -335 -146 -974 -334 -131 -39 -264 -82 -295
-96 -31 -13 -99 -40 -151 -58 -52 -18 -163 -58 -247 -88 -83 -30 -178 -58
-210 -61 -32 -4 -134 -20 -228 -36 -93 -16 -215 -32 -270 -35 -91 -5 -171 -13
-470 -45 -55 -6 -201 -15 -325 -20 -125 -5 -233 -12 -240 -15 -18 -6 -154 -18
-505 -44 -143 -11 -296 -24 -340 -30 -166 -21 -276 -31 -352 -31 -89 0 -255
-22 -358 -46 -439 -104 -609 -150 -701 -189 -113 -47 -300 -122 -364 -147 -30
-11 -102 -43 -160 -70 -61 -29 -197 -76 -325 -115 -121 -36 -274 -87 -340
-114 -66 -26 -154 -55 -195 -63 -41 -9 -104 -25 -140 -36 -36 -11 -126 -29
-200 -40 -74 -11 -214 -40 -310 -64 -170 -43 -340 -74 -524 -96 -49 -6 -119
-17 -155 -25 -36 -7 -91 -16 -121 -20 -79 -9 -361 -53 -455 -69 -44 -8 -145
-20 -225 -26 -203 -16 -653 -77 -915 -124 -103 -19 -289 -36 -385 -36 -41 0
-129 -7 -195 -15 -343 -42 -432 -47 -684 -40 -235 6 -518 35 -650 66 -74 18
-177 57 -218 82 -89 55 -168 78 -363 107 -74 11 -182 29 -240 40 -58 12 -141
27 -185 35 -153 27 -465 122 -595 182 -30 14 -102 47 -160 73 -58 26 -220 104
-360 172 -390 192 -397 195 -700 282 -85 24 -186 56 -225 71 -38 14 -100 37
-136 49 -36 13 -81 31 -99 41 -19 10 -95 39 -170 65 -74 26 -199 78 -278 114
-78 36 -173 76 -210 87 -37 12 -125 51 -197 87 -156 78 -196 92 -530 186 -272
77 -340 93 -545 129 -123 22 -138 22 -1010 19 -975 -4 -1274 5 -1555 43 -99
13 -223 29 -275 35 -52 6 -113 15 -135 19 -215 48 -214 47 -490 167 -240 104
-564 269 -645 328 -75 55 -269 178 -383 243 -44 24 -114 70 -157 101 -190 138
-338 235 -500 327 -47 26 -135 83 -197 127 -197 139 -353 193 -558 193 -225 0
-446 -81 -635 -232 -167 -133 -405 -297 -471 -324 -36 -15 -81 -35 -99 -44
-28 -14 -49 -16 -124 -10 -50 3 -125 15 -166 25 -122 30 -211 40 -358 40 -299
0 -487 -61 -874 -282 -225 -128 -263 -154 -401 -284 l-87 -81 0 -9197 0 -9196
19200 0 19200 0 0 9653 0 9653 -117 48 c-214 87 -533 189 -663 211 -293 51
-442 77 -485 86 -62 13 -1055 21 -1140 9z"/>
</g>
</svg>
