<?xml version="1.0" standalone="no"?>
<!DOCTYPE svg PUBLIC "-//W3C//DTD SVG 20010904//EN"
 "http://www.w3.org/TR/2001/REC-SVG-20010904/DTD/svg10.dtd">
<svg version="1.0" xmlns="http://www.w3.org/2000/svg"
 width="3840.000000pt" height="2160.000000pt" viewBox="0 0 3840.000000 2160.000000"
 preserveAspectRatio="xMidYMid meet">

<g transform="translate(0.000000,2160.000000) scale(0.100000,-0.100000)"
fill="#000000" stroke="none">
<path d="M15800 18615 c-172 -26 -281 -55 -445 -119 -60 -24 -148 -56 -195
-72 -47 -16 -176 -75 -288 -132 -233 -118 -285 -137 -437 -157 -142 -19 -224
-37 -420 -92 -88 -25 -252 -69 -365 -98 -246 -64 -293 -79 -454 -150 -69 -30
-178 -74 -243 -96 -172 -59 -398 -181 -578 -312 -44 -32 -127 -90 -185 -129
-198 -133 -529 -400 -608 -489 -32 -36 -43 -42 -277 -139 -55 -23 -145 -64
-201 -90 -141 -67 -297 -122 -454 -160 -74 -18 -166 -44 -205 -58 -82 -30 -75
-29 -645 -42 -411 -9 -432 -10 -660 -44 -304 -46 -389 -71 -570 -168 -95 -51
-120 -69 -203 -145 -37 -34 -94 -76 -125 -93 -32 -17 -82 -51 -112 -76 -30
-25 -91 -70 -135 -101 -241 -170 -386 -308 -524 -498 -24 -33 -109 -123 -188
-199 -148 -144 -205 -184 -456 -322 -123 -69 -295 -119 -407 -118 -131 0 -272
15 -365 39 -210 55 -623 84 -951 66 -259 -15 -447 -41 -564 -81 -116 -39 -301
-94 -380 -114 -91 -22 -687 -29 -781 -10 -35 8 -91 14 -124 14 -69 0 -224 24
-251 38 -11 5 -64 22 -119 37 -55 15 -167 49 -249 77 -193 65 -278 78 -505 78
-242 0 -396 -24 -565 -87 -146 -54 -171 -67 -284 -141 -48 -32 -103 -64 -122
-71 -63 -24 -253 -111 -385 -177 -148 -73 -387 -167 -617 -244 l-158 -52 0
-6944 0 -6944 19200 0 19200 0 0 6864 0 6863 -45 42 c-25 23 -92 72 -148 108
-56 36 -129 87 -162 113 -33 26 -99 73 -147 103 -48 31 -126 87 -175 124 -177
137 -274 187 -663 339 -344 135 -725 313 -803 374 -104 83 -355 248 -436 287
-157 74 -582 205 -726 223 -141 18 -379 7 -625 -29 -330 -48 -523 -57 -780
-37 -118 9 -303 20 -410 26 -123 6 -233 17 -295 30 -55 12 -138 27 -184 35
-99 17 -130 27 -225 70 -39 18 -89 38 -111 45 -22 7 -116 47 -210 90 -234 107
-486 221 -570 258 -164 71 -379 111 -603 113 -212 1 -355 21 -537 75 -44 13
-132 32 -195 43 -104 17 -164 36 -370 114 -177 67 -429 183 -539 247 -67 39
-134 75 -148 81 -54 20 -266 130 -309 160 -91 62 -311 159 -523 229 -351 117
-277 112 -1598 106 -1385 -6 -1650 -14 -1868 -51 -153 -26 -180 -28 -655 -36
-272 -4 -535 -12 -585 -18 -169 -19 -533 -24 -825 -11 -680 29 -694 31 -885
96 -110 37 -331 86 -470 103 -375 45 -407 51 -512 86 -62 22 -145 60 -197 92
-106 64 -329 173 -401 197 -104 33 -161 38 -570 46 -231 5 -465 14 -520 19
-55 6 -170 15 -255 20 -169 11 -267 32 -470 101 -63 22 -196 60 -295 85 -216
55 -280 73 -450 130 -71 24 -159 48 -195 55 -84 14 -171 46 -240 87 -30 18
-59 33 -63 33 -4 0 -34 16 -65 36 -31 20 -122 68 -202 106 -80 38 -217 105
-305 148 -106 53 -197 90 -270 110 -60 17 -155 44 -210 60 -190 56 -311 61
-555 25z"/>
</g>
</svg>
