<?xml version="1.0" standalone="no"?>
<!DOCTYPE svg PUBLIC "-//W3C//DTD SVG 20010904//EN"
 "http://www.w3.org/TR/2001/REC-SVG-20010904/DTD/svg10.dtd">
<svg version="1.0" xmlns="http://www.w3.org/2000/svg"
 width="3840.000000pt" height="2160.000000pt" viewBox="0 0 3840.000000 2160.000000"
 preserveAspectRatio="xMidYMid meet">

<g transform="translate(0.000000,2160.000000) scale(0.100000,-0.100000)"
fill="#000000" stroke="none">
<path d="M22480 15643 c-255 -9 -500 -27 -665 -48 -104 -13 -242 -28 -305 -34
-132 -12 -410 -59 -567 -95 -177 -41 -340 -102 -523 -197 -211 -108 -367 -166
-618 -230 -264 -67 -558 -150 -616 -174 -44 -19 -279 -86 -366 -105 -30 -6
-95 -22 -145 -35 -49 -14 -139 -36 -198 -50 -60 -15 -154 -42 -210 -60 -162
-53 -432 -102 -892 -161 -139 -18 -292 -40 -420 -60 -87 -14 -284 -16 -1510
-19 -816 -2 -1479 -7 -1575 -13 -241 -15 -335 -37 -690 -157 -189 -63 -321
-124 -541 -246 -170 -94 -432 -230 -539 -279 -58 -26 -163 -75 -235 -107 -71
-33 -209 -98 -305 -145 -255 -124 -296 -143 -390 -177 -152 -54 -221 -81 -251
-96 -16 -9 -58 -25 -93 -35 -58 -18 -109 -40 -371 -157 -145 -64 -266 -111
-380 -145 -55 -16 -136 -46 -180 -65 -44 -20 -217 -83 -385 -140 -243 -84
-329 -109 -425 -124 -66 -11 -142 -25 -170 -33 -72 -20 -187 -43 -285 -56 -47
-7 -136 -25 -198 -41 -63 -16 -162 -36 -220 -45 -59 -8 -132 -21 -162 -29 -30
-8 -104 -23 -165 -35 -194 -36 -297 -61 -439 -106 -76 -24 -175 -53 -220 -65
-150 -37 -320 -90 -421 -130 -55 -22 -125 -50 -155 -61 -30 -12 -100 -43 -155
-69 -109 -51 -203 -91 -393 -168 -68 -27 -185 -83 -260 -124 -148 -80 -172
-90 -336 -138 -60 -17 -136 -42 -169 -56 -89 -36 -271 -80 -592 -142 -134 -25
-423 -109 -560 -161 -57 -22 -214 -65 -395 -110 -138 -33 -493 -136 -665 -193
-60 -20 -164 -48 -230 -62 -66 -14 -147 -32 -180 -40 -33 -8 -145 -33 -250
-55 -104 -23 -233 -52 -285 -66 -52 -14 -140 -34 -195 -44 -55 -10 -120 -23
-145 -29 -25 -6 -97 -22 -160 -36 -154 -34 -151 -33 -260 -65 -52 -15 -131
-33 -175 -38 -44 -6 -143 -28 -220 -50 -77 -21 -176 -47 -220 -57 -44 -10
-121 -33 -171 -51 -89 -32 -267 -79 -414 -108 -41 -9 -108 -28 -147 -43 l-73
-28 0 -4977 0 -4978 19200 0 19200 0 0 5469 0 5468 -107 38 c-124 43 -306 112
-408 155 -38 16 -118 47 -177 69 -59 22 -196 85 -305 140 -109 55 -223 109
-253 121 -30 12 -84 39 -120 60 -71 43 -252 125 -358 164 -116 42 -580 244
-732 318 -80 39 -208 110 -285 158 -324 199 -452 270 -610 333 -60 25 -168 70
-240 100 -153 66 -504 165 -755 213 -33 6 -68 18 -225 79 -320 124 -1004 323
-1240 360 -60 10 -228 43 -335 66 -52 11 -131 26 -175 34 -44 8 -161 37 -260
65 -165 47 -282 75 -425 101 -105 19 -206 40 -305 64 -268 65 -353 83 -575
120 -46 8 -276 68 -510 134 -234 65 -479 131 -545 146 -119 26 -206 53 -590
180 -229 76 -327 112 -440 162 -44 19 -143 57 -220 85 -77 28 -178 68 -225 90
-138 65 -168 78 -310 128 -74 27 -175 66 -225 89 -94 42 -413 169 -550 219
-44 16 -164 64 -267 105 -103 42 -213 83 -245 90 -134 32 -303 90 -373 126
-185 97 -319 139 -515 161 -202 22 -248 31 -368 70 -141 45 -203 56 -394 70
-76 6 -172 14 -213 20 -41 5 -121 9 -178 10 -57 0 -145 4 -195 10 -425 44
-748 60 -1202 58 -214 -1 -424 -3 -465 -5z"/>
</g>
</svg>
